<svg xmlns="http://www.w3.org/2000/svg" xmlns:xlink="http://www.w3.org/1999/xlink" version="1.1" width="256" height="256" viewBox="0 0 256 256" xml:space="preserve">

<defs>
</defs>
<g style="stroke: none; stroke-width: 0; stroke-dasharray: none; stroke-linecap: butt; stroke-linejoin: miter; stroke-miterlimit: 10; fill: none; fill-rule: nonzero; opacity: 1;" transform="translate(1.4065934065934016 1.4065934065934016) scale(2.81 2.81)" >
	<path d="M 45 0 C 28.419 0 14.929 13.49 14.929 30.071 c 0 4.612 1.016 9.037 3.02 13.15 c 3.304 6.629 13.727 24.25 23.807 41.291 L 45 90 l 3.264 -5.522 c 10.071 -17.027 20.485 -34.633 23.794 -41.275 c 0.011 -0.023 0.023 -0.046 0.035 -0.068 c 1.976 -4.089 2.977 -8.484 2.977 -13.063 C 75.071 13.49 61.582 0 45 0 z" style="stroke: none; stroke-width: 1; stroke-dasharray: none; stroke-linecap: butt; stroke-linejoin: miter; stroke-miterlimit: 10; fill: #06C755; fill-rule: nonzero; opacity: 1;" transform=" matrix(1 0 0 1 0 0) " stroke-linecap="round" />
	<circle cx="44.997" cy="29.517" r="21.477" style="stroke: none; stroke-width: 1; stroke-dasharray: none; stroke-linecap: butt; stroke-linejoin: miter; stroke-miterlimit: 10; fill: rgb(249,249,249); fill-rule: nonzero; opacity: 1;" transform="  matrix(1 0 0 1 0 0) "/>
	<path d="M 47.492 32.595 H 38.39 c -1.104 0 -2 -0.896 -2 -2 V 18.269 c 0 -1.104 0.896 -2 2 -2 h 9.102 c 4.501 0 8.163 3.662 8.163 8.163 S 51.993 32.595 47.492 32.595 z M 40.39 28.595 h 7.102 c 2.296 0 4.163 -1.868 4.163 -4.163 s -1.867 -4.163 -4.163 -4.163 H 40.39 V 28.595 z" style="stroke: none; stroke-width: 1; stroke-dasharray: none; stroke-linecap: butt; stroke-linejoin: miter; stroke-miterlimit: 10; fill: #06C755; fill-rule: nonzero; opacity: 1;" transform=" matrix(1 0 0 1 0 0) " stroke-linecap="round" />
	<path d="M 38.39 42.769 c -1.104 0 -2 -0.896 -2 -2 V 30.595 c 0 -1.104 0.896 -2 2 -2 s 2 0.896 2 2 v 10.174 C 40.39 41.874 39.495 42.769 38.39 42.769 z" style="stroke: none; stroke-width: 1; stroke-dasharray: none; stroke-linecap: butt; stroke-linejoin: miter; stroke-miterlimit: 10; fill: #06C755; fill-rule: nonzero; opacity: 1;" transform=" matrix(1 0 0 1 0 0) " stroke-linecap="round" />
</g>
</svg>